<svg width="168" height="56" viewBox="0 0 168 56" fill="none" xmlns="http://www.w3.org/2000/svg">
<path d="M70.4865 55.3111L69.8675 54.6785L70.4865 54.046L71.1056 53.4135L71.6543 53.9476L72.203 54.4958L72.7095 53.9476L73.23 53.3994L73.9053 54.0741L74.5666 54.7629L73.9335 55.3813L73.3004 55.9998L72.7235 55.4516C72.2311 54.9597 72.1467 54.9175 72.0201 55.1283C71.9497 55.2548 71.7106 55.4938 71.4854 55.6484L71.0915 55.9295L70.4865 55.3111Z" fill="white"/>
<path d="M96.2332 55.3112L95.6141 54.6786L96.2332 54.0461L96.8522 53.4136L97.4291 53.9758L97.9918 54.5381L98.4983 53.9758L98.9907 53.4136L99.652 54.0883L100.313 54.763L99.6801 55.3814L99.047 55.9999L98.5124 55.4798L97.9778 54.9598L97.4994 55.4517C97.2321 55.7188 96.9788 55.9437 96.9366 55.9437C96.8944 55.9437 96.5708 55.6626 96.2332 55.3112Z" fill="white"/>
<path d="M112.525 55.2832L111.991 55.227V54.2993C111.991 53.5262 112.019 53.3997 112.216 53.47C112.342 53.5121 112.68 53.5965 112.975 53.6387C113.623 53.7511 114.692 53.3154 114.973 52.8234C115.1 52.5985 115.17 51.6848 115.198 49.6607L115.255 46.8073H116.155H117.056V48.7752V50.7431H117.745C118.561 50.7431 119.011 50.4338 119.096 49.8294C119.124 49.6045 119.152 48.0583 119.152 46.4278L119.166 43.4338H120.01H120.854V46.976C120.854 50.5041 120.854 50.5041 120.502 51.1085C119.982 51.98 119.152 52.4298 117.857 52.5282L116.802 52.6126L116.648 53.1607C116.422 53.8636 115.719 54.6648 115.016 54.974C114.396 55.2551 113.327 55.3816 112.525 55.2832Z" fill="white"/>
<path d="M55.4889 55.0724C55.2497 54.6929 55.0105 53.47 55.0105 52.6407C55.0105 51.4319 55.3763 50.7853 56.3471 50.3214L56.9802 50.0122V48.8315C56.9802 47.3415 57.2756 46.6949 58.2042 46.0905C59.4564 45.3034 61.1728 45.6407 61.9888 46.8355C62.3546 47.3556 62.3968 47.5524 62.439 48.7331C62.5094 50.4901 62.425 50.8837 61.7637 51.6146C60.9618 52.5423 60.3146 52.6829 58.8232 52.3034C57.4445 51.9379 57.4726 51.9379 57.1209 52.2893C56.7129 52.6969 56.7832 53.6949 57.3178 54.96C57.3882 55.1287 57.2475 55.1708 56.4737 55.1708C55.9672 55.1708 55.517 55.1287 55.4889 55.0724ZM60.4693 50.4339C60.5819 50.3214 60.6382 49.8014 60.6382 49.0423C60.6382 47.9319 60.61 47.7913 60.3286 47.5945C59.9066 47.2994 59.4704 47.3134 59.0765 47.6227C58.8092 47.8476 58.7529 48.0584 58.6966 49.0704C58.6403 50.209 58.6544 50.2652 58.9639 50.4198C59.4142 50.6307 60.2583 50.6447 60.4693 50.4339Z" fill="white"/>
<path d="M75.8328 52.0362C75.8328 51.0101 75.8891 50.6728 76.1564 50.1668C76.4378 49.6186 77.4086 48.7893 77.9713 48.6065C78.0698 48.5644 77.5633 47.7069 76.7192 46.4559L75.2982 44.3615L75.9735 43.8977C76.3534 43.6447 76.7192 43.4338 76.7755 43.4338C76.8317 43.4479 77.5211 44.3897 78.2949 45.5423C79.2235 46.9198 79.744 47.5804 79.8425 47.4961C79.9269 47.4117 79.9973 46.47 80.0254 45.4017L80.0817 43.4338H80.8977H81.7278L81.8263 44.2491C81.8826 44.6848 81.8544 45.6688 81.77 46.4419C81.6434 47.5804 81.5449 47.9459 81.1932 48.5081C80.7852 49.1688 80.7852 49.2109 80.9681 49.6889C81.0806 49.9559 81.1791 50.5463 81.1791 51.0242C81.1791 51.7832 81.1369 51.9097 80.6867 52.4017C80.0536 53.1186 79.4627 53.2732 77.4648 53.2732H75.8328V52.0362ZM79.1813 51.3615C79.4064 51.3194 79.4908 51.2069 79.4908 50.9117C79.4908 50.6868 79.4064 50.4057 79.322 50.2792C79.1531 50.0543 79.0969 50.0543 78.5622 50.3214C78.0698 50.5744 77.6618 51.0664 77.6618 51.4178C77.6618 51.5302 78.5904 51.4881 79.1813 51.3615Z" fill="white"/>
<path d="M66.0548 52.4439C65.4921 52.3033 64.8449 51.9519 64.5494 51.6286C63.9445 50.968 63.8741 50.4901 63.8741 46.8776V43.4338H64.7605H65.6328L65.5906 46.4138C65.5624 48.0583 65.5906 49.6186 65.6328 49.8716C65.7875 50.6869 66.7161 50.982 67.307 50.3776C67.4899 50.2089 67.5321 49.8154 67.5321 48.48V46.8073H68.4466H69.3611V48.4238C69.3611 49.97 69.3752 50.0684 69.7128 50.3917C69.9942 50.6869 70.1912 50.7431 70.9368 50.7431C72.4 50.7431 72.4563 50.6587 72.4563 48.5503V46.8073H73.3849H74.3134L74.2572 48.7471C74.215 50.6025 74.2009 50.729 73.821 51.2772C73.216 52.1909 72.5126 52.486 70.9087 52.5001C69.7691 52.5001 69.4877 52.4579 69.0375 52.1909C68.5029 51.8676 68.5029 51.8676 67.9823 52.1346C67.3351 52.4579 66.6035 52.5704 66.0548 52.4439Z" fill="white"/>
<path d="M83.6835 52.2752L83.1488 52.0081V47.721V43.4338H84.0633H84.9778V47.0182C84.9778 50.6587 84.8653 51.7832 84.4432 52.2752C84.204 52.5563 84.204 52.5563 83.6835 52.2752Z" fill="white"/>
<path d="M95.4171 52.4156C95.0232 52.3172 94.6011 52.0642 94.2072 51.6847C93.5178 51.01 93.2786 50.265 93.2786 48.7048C93.2786 47.9317 93.2364 47.7771 92.9691 47.5943C92.547 47.2851 92.1249 47.3132 91.7592 47.6506C91.4918 47.9036 91.4496 48.0863 91.4496 49.1265C91.4496 50.1807 91.4778 50.3212 91.7592 50.518C91.928 50.6445 92.1953 50.7429 92.336 50.7429C92.5048 50.7429 92.5752 50.8132 92.533 50.9397C92.4907 51.0522 92.3782 51.4036 92.2797 51.7269C92.0546 52.4578 91.8717 52.5421 91.1682 52.2188C89.9864 51.6847 89.6206 50.8976 89.6206 48.9578C89.6206 47.3835 89.888 46.7088 90.7321 46.1465C91.7873 45.4297 92.8143 45.4156 93.8836 46.1044C94.784 46.6666 95.1076 47.4257 95.1076 48.9016C95.1076 49.9417 95.1358 50.0823 95.4593 50.3915C95.7548 50.6867 95.9236 50.7429 96.6974 50.7429C97.3868 50.7429 97.6963 50.6727 97.9355 50.4759C98.245 50.2229 98.2732 50.0963 98.3154 48.508L98.3717 46.8072H99.2017H100.032V48.6907V50.5743L99.5816 51.249C99.3002 51.6706 98.9063 52.0361 98.5686 52.2048C97.9214 52.5281 96.3176 52.6265 95.4171 52.4156Z" fill="white"/>
<path d="M103.577 52.4298C102.832 52.2471 102.058 51.6567 101.734 50.9961C101.453 50.4057 101.439 50.1527 101.439 46.9057V43.4338H102.353H103.268V46.7792C103.268 49.3937 103.31 50.1808 103.465 50.3917C103.605 50.5885 103.887 50.6728 104.534 50.715C105.364 50.7712 105.42 50.7571 105.308 50.5182C104.59 48.7893 105.209 46.6949 106.672 45.9358C108.347 45.0784 110.443 46.1045 110.682 47.9178L110.767 48.4941H109.894C109.275 48.4941 109.036 48.4379 109.036 48.3113C109.036 48.0021 108.417 47.5101 108.037 47.5101C106.813 47.5101 106.546 49.4499 107.643 50.3776C108.051 50.715 108.164 50.7431 109.543 50.7431H111.006V51.6567V52.5704L107.531 52.5563C105.603 52.5423 103.831 52.486 103.577 52.4298Z" fill="white"/>
<path d="M66.6879 45.1908L66.0688 44.5582L66.7301 43.8835C67.124 43.504 67.4476 43.2791 67.5039 43.3635C67.5601 43.4478 67.8134 43.6868 68.0666 43.9117L68.5169 44.3333L68.9952 43.7711L69.4876 43.2229L70.1629 43.8976L70.8383 44.5582L70.177 45.2189L69.5158 45.8795L69.0233 45.3173L68.5309 44.7691L67.9963 45.3032C67.6868 45.5843 67.4195 45.8233 67.3773 45.8233C67.335 45.8233 67.0255 45.5422 66.6879 45.1908Z" fill="white"/>
<path d="M90.6477 44.0101L90.0568 43.3354L90.6899 42.717L91.3089 42.1125L91.8435 42.6326L92.3782 43.1527L92.8987 42.6326L93.4193 42.1125L94.0524 42.731L94.6855 43.3495L94.0383 44.0101L93.3912 44.6708L92.8847 44.1085L92.3922 43.5603L91.8154 44.1226L91.2386 44.6708L90.6477 44.0101Z" fill="white"/>
<path d="M75.2701 42.5062C75.2701 42.3094 75.3826 42.1548 75.5515 42.0985C75.7906 42.0283 75.8047 41.958 75.6781 41.719C75.3264 41.0584 75.9735 40.2853 76.8458 40.3696C77.2398 40.3977 77.3101 40.468 77.3101 40.7632C77.3101 41.0303 77.2398 41.1146 76.9725 41.1146C76.7896 41.1146 76.5644 41.2271 76.48 41.3676C76.2831 41.6909 76.677 42.0283 77.2679 42.0283C77.6478 42.0283 77.7603 42.225 77.5493 42.5343C77.493 42.6186 76.9584 42.717 76.3675 42.7592C75.2982 42.8295 75.2701 42.8154 75.2701 42.5062Z" fill="white"/>
<path d="M107.39 34.8591C107.685 34.6061 108.051 34.1563 108.206 33.847C108.431 33.3973 108.544 33.2989 108.797 33.3691C109.121 33.4394 110.063 33.5519 111.203 33.6503C112.188 33.7346 114.27 33.4956 115.48 33.1724C116.535 32.8772 117.998 32.2025 118.927 31.5699C119.743 31.0077 119.532 31.4153 118.645 32.1181C117.098 33.327 114.608 34.4234 112.202 34.9294C111.667 35.0559 110.232 35.1824 109.036 35.2246L106.855 35.3089L107.39 34.8591Z" fill="white"/>
<path d="M100.876 34.2274C94.1087 32.7656 89.8176 31.9363 87.2992 31.627C86.6098 31.5427 85.5265 31.4162 84.9074 31.3319C83.0925 31.107 75.3404 31.0086 72.9486 31.1913C67.3491 31.613 60.3849 32.7656 55.7983 34.0307C55.2637 34.1712 54.7994 34.2696 54.7713 34.2415C54.6868 34.1572 58.0072 32.9764 60.0753 32.358C64.5353 31.0086 69.0796 30.0809 74.0038 29.5186C82.8533 28.5206 91.6466 29.0126 100.257 31.0226L101.819 31.3881L101.748 31.9784C101.678 32.6391 102.03 33.8901 102.367 34.1572C102.578 34.3399 102.635 34.5929 102.466 34.5648C102.395 34.5507 101.692 34.4102 100.876 34.2274Z" fill="white"/>
<path d="M120.221 30.5023C120.939 29.7714 121.234 29.5746 120.77 30.1228C120.137 30.8818 119.813 31.2051 119.672 31.2051C119.588 31.2051 119.841 30.8959 120.221 30.5023Z" fill="white"/>
<path d="M95.5438 29.0823C93.8132 28.7871 91.8858 27.3112 91.126 25.6807C90.4789 24.3032 90.4648 24.1064 90.4648 11.7369V0H92.4345H94.4042V11.6948C94.4042 23.2349 94.4042 23.3896 94.6996 23.9799C95.1639 24.9639 96.205 25.4277 97.2461 25.1466C97.9777 24.9498 98.6953 24.261 98.8922 23.5442C98.9907 23.1787 99.047 21.253 99.047 18.245V13.494H100.989H102.916L102.874 18.2028C102.846 21.1968 102.888 23.1225 102.986 23.4739C103.549 25.5402 106.279 25.8775 107.193 23.9799C107.474 23.4177 107.488 23.1506 107.488 18.4418V13.494H109.458H111.428V18.4699C111.428 21.239 111.372 23.7691 111.287 24.1908C110.893 26.257 109.388 28.0141 107.277 28.8153C106.616 29.0683 106.152 29.1386 105.167 29.1386C103.69 29.1386 102.663 28.8012 101.622 28.0141L100.974 27.5221L100.609 27.8173C99.9333 28.3514 98.8781 28.8293 97.9355 29.0402C96.8944 29.251 96.6412 29.2651 95.5438 29.0823Z" fill="white"/>
<path d="M77.1976 25.7228C75.6078 25.3011 72.7376 23.769 70.5006 22.1666L69.7409 21.6184L71.1338 21.0561C73.8772 19.9597 74.1868 19.8895 76.1142 19.9035C77.8307 19.9176 77.9151 19.9316 79.7722 20.5782C80.8133 20.9296 82.0374 21.267 82.4876 21.3232C83.6975 21.4497 84.1196 22.0682 83.3458 22.5883C83.0363 22.785 82.6423 22.8132 80.7149 22.7991C79.4768 22.785 78.4919 22.8132 78.5341 22.8553C78.5763 22.8975 79.2095 23.024 79.927 23.1224C80.6586 23.2348 81.4465 23.3895 81.6716 23.4457C82.0233 23.5441 82.6001 23.4035 84.8231 22.6866C86.3285 22.1947 87.7635 21.7871 88.0168 21.7871C88.4248 21.7871 89.2267 22.2369 89.0579 22.3915C88.2278 23.0943 84.8512 24.9075 83.5006 25.3714C81.4887 26.0461 78.9281 26.2007 77.1976 25.7228Z" fill="white"/>
<path d="M3.7283 52.8513C3.47505 52.5701 3.47505 52.5561 3.77051 52.2609C4.06596 51.9657 4.08003 51.9657 4.36141 52.2187C4.62873 52.4577 4.65686 52.4577 4.89604 52.2328C5.14928 52.0219 5.17742 52.0219 5.4166 52.289C5.65578 52.5561 5.65578 52.5842 5.4166 52.8513C5.17742 53.1183 5.14928 53.1183 4.89604 52.9075C4.65686 52.6826 4.62873 52.6826 4.38955 52.8934C4.06596 53.1886 4.03782 53.1886 3.7283 52.8513Z" fill="white"/>
<path d="M49.3125 52.8513C49.0593 52.5701 49.0593 52.5561 49.3547 52.2468L49.6642 51.9517L49.9737 52.2468C50.2692 52.5561 50.2692 52.5701 50.016 52.8513C49.8753 53.0059 49.7205 53.1324 49.6642 53.1324C49.6079 53.1324 49.4532 53.0059 49.3125 52.8513Z" fill="white"/>
<path d="M127.495 52.8092L127.185 52.4719L127.467 52.2189C127.748 51.9659 127.762 51.9659 128.058 52.247L128.353 52.5562L128.606 52.247L128.86 51.9377L129.183 52.261L129.493 52.5703L129.197 52.8795C128.888 53.1747 128.874 53.1747 128.592 52.9217C128.325 52.6827 128.297 52.6827 128.058 52.8936C127.819 53.1185 127.776 53.1044 127.495 52.8092Z" fill="white"/>
<path d="M133.404 52.8092L133.094 52.4719L133.376 52.2189C133.657 51.9659 133.671 51.9659 133.967 52.247L134.262 52.5562L134.515 52.247L134.769 51.9377L135.092 52.261L135.402 52.5703L135.106 52.8795C134.797 53.1747 134.783 53.1747 134.501 52.9217C134.234 52.6827 134.206 52.6827 133.967 52.8936C133.728 53.1185 133.685 53.1044 133.404 52.8092Z" fill="white"/>
<path d="M149.485 52.8513C149.232 52.5701 149.232 52.5561 149.527 52.2609C149.823 51.9657 149.837 51.9657 150.118 52.2187C150.371 52.4577 150.428 52.4577 150.653 52.2468C150.85 52.0641 150.934 52.0641 151.145 52.2047C151.441 52.4296 151.441 52.5561 151.145 52.8794C150.934 53.1183 150.906 53.1183 150.653 52.9075C150.414 52.6826 150.385 52.6826 150.146 52.8934C149.823 53.1886 149.795 53.1886 149.485 52.8513Z" fill="white"/>
<path d="M161.585 52.8513C161.331 52.5702 161.331 52.5562 161.599 52.275C161.88 51.9939 161.88 51.9939 162.147 52.2891C162.401 52.5702 162.401 52.5843 162.133 52.8654C161.852 53.1465 161.852 53.1465 161.585 52.8513Z" fill="white"/>
<path d="M9.7077 52.6126C9.7077 52.2331 9.73584 52.219 10.2564 52.2612C10.7066 52.3033 10.8895 52.2471 11.1709 51.9519C11.5226 51.6146 11.5367 51.5303 11.5367 49.8997V48.213H11.9588H12.3808V49.4078C12.3808 50.5604 12.3949 50.6025 12.7044 50.6025C12.8733 50.6025 13.1687 50.5042 13.3375 50.3776C13.6049 50.1949 13.6471 50.0403 13.6471 49.1829V48.213H14.0691H14.4912V49.1688C14.4912 49.9278 14.5475 50.1809 14.7445 50.3636C15.0821 50.6728 15.2791 50.6588 15.6168 50.3214C15.8419 50.0965 15.8981 49.8576 15.8981 49.1266V48.213H16.3202H16.7423V49.2672C16.7423 50.2652 16.7704 50.3355 17.094 50.4901C17.3895 50.6166 17.488 50.6025 17.7271 50.3917C17.9522 50.1809 18.0085 49.956 18.0085 49.1688V48.213H18.4306H18.8527V49.1829C18.8527 50.0403 18.8949 50.1949 19.1622 50.3776C19.4436 50.5744 19.4998 50.5744 19.725 50.3636C19.9501 50.1668 19.9782 49.8857 19.9782 48.1849V46.2451H20.4003H20.8224V48.3395V50.4339L20.4143 50.8696C20.0908 51.221 19.8938 51.3054 19.4436 51.3054C19.1341 51.3054 18.8105 51.221 18.712 51.0945C18.5713 50.9258 18.5009 50.9258 18.2477 51.0805C17.699 51.4178 17.2347 51.4459 16.7142 51.1929C16.2921 50.968 16.1936 50.968 15.9263 51.1367C15.5042 51.4038 14.6741 51.3897 14.3365 51.0805C14.0832 50.8556 14.0551 50.8556 13.7878 51.0945C13.6189 51.2491 13.2531 51.3756 12.9014 51.3897C12.3808 51.4178 12.3105 51.46 12.212 51.8254C12.0291 52.5282 11.4945 52.8937 10.5519 52.964L9.7077 53.0202V52.6126Z" fill="white"/>
<path d="M129.859 52.5845C129.859 52.1909 129.887 52.1768 130.393 52.2471C130.829 52.3033 131.012 52.2471 131.35 51.966C131.758 51.6146 131.758 51.5865 131.8 49.9138L131.856 48.213H132.264H132.672V49.4078C132.672 50.462 132.7 50.6025 132.926 50.6025C133.066 50.6025 133.32 50.5042 133.488 50.3776C133.756 50.1949 133.798 50.0403 133.798 49.1829V48.213H134.22H134.642V49.1969C134.642 50.5463 134.783 50.6307 136.879 50.5744L138.455 50.5323L137.751 49.7732C137.104 49.0704 137.02 49.0282 136.499 49.0845C135.979 49.1266 135.922 49.0985 135.88 48.7471C135.81 48.2692 136.246 48.0021 136.921 48.1287C137.47 48.2411 137.709 48.4379 138.694 49.5764C139.538 50.5744 139.848 50.7291 140.34 50.4058C140.692 50.1809 140.692 50.1387 140.692 48.213V46.2451H141.114H141.536V48.213C141.536 51.4038 141.423 51.4881 137.456 51.4178C135.233 51.3897 134.755 51.3335 134.572 51.1507C134.361 50.9399 134.304 50.9399 133.826 51.1789C133.545 51.3335 133.137 51.4459 132.926 51.4459C132.63 51.4459 132.518 51.5303 132.447 51.7973C132.405 51.9941 132.138 52.3315 131.884 52.5704C131.462 52.9359 131.28 52.9921 130.632 52.9921C129.873 52.9921 129.859 52.978 129.859 52.5845Z" fill="white"/>
<path d="M5.41663 51.3474C5.26187 51.3052 5.03676 51.1928 4.91014 51.0803C4.72724 50.9117 4.6569 50.9117 4.41772 51.0944C3.99565 51.4177 3.16556 51.3615 2.72942 50.9679C2.39176 50.6868 2.33548 50.5181 2.27921 49.6747C2.20886 48.6064 2.08224 48.3534 1.61796 48.3534C1.12553 48.3534 0.84415 48.7892 0.84415 49.5201C0.84415 50.0542 0.900427 50.2088 1.18181 50.4056C1.49133 50.5884 1.5054 50.6727 1.37878 50.9679C1.18181 51.3755 0.998911 51.3896 0.576836 51.01C0.16883 50.6305 0 50.1667 0 49.3936C0 48.6064 0.309522 48.002 0.84415 47.7209C1.35064 47.4538 1.73051 47.4538 2.237 47.7068C2.84197 48.0301 3.09522 48.5221 3.09522 49.3936C3.09522 50.0261 3.1515 50.2088 3.40474 50.3775C3.68612 50.5743 3.7424 50.5743 3.96751 50.3635C4.16448 50.1948 4.22075 49.9277 4.22075 49.1687V48.2129H4.64283H5.0649V49.1827C5.0649 50.0402 5.10711 50.1948 5.37442 50.3775C5.54325 50.504 5.83871 50.6024 6.00754 50.6024C6.31706 50.6024 6.33113 50.5603 6.24671 49.8434C6.13416 48.8454 6.37334 48.1285 6.95017 47.7771C7.47073 47.4538 7.89281 47.4398 8.42744 47.7068C9.03241 48.0301 9.28566 48.5221 9.28566 49.4076C9.28566 50.9538 8.66661 51.4598 6.79541 51.4317C6.19044 51.4177 5.57139 51.3755 5.41663 51.3474ZM8.2164 50.3775C8.48371 50.1105 8.52592 48.7751 8.27267 48.5221C8.00536 48.255 7.49887 48.3253 7.25969 48.6627C6.59844 49.5904 7.47073 51.1366 8.2164 50.3775Z" fill="white"/>
<path d="M28.5604 51.3475C27.66 51.0664 27.2942 50.476 27.2942 49.3797C27.2942 49.0001 27.2239 48.6206 27.1254 48.5222C26.8581 48.2552 26.3516 48.3254 26.1124 48.6628C25.7044 49.2391 25.9014 50.462 26.4079 50.462C26.5626 50.462 26.6048 50.5463 26.5345 50.7853C26.4923 50.954 26.4501 51.1367 26.4501 51.207C26.4501 51.4319 25.9154 51.2913 25.6341 50.9961C24.7618 50.0544 24.8884 48.3395 25.8732 47.7491C26.3797 47.454 26.7596 47.4399 27.2942 47.721C27.9273 48.0443 28.1384 48.466 28.1384 49.3656C28.1384 50.0262 28.1946 50.1949 28.4479 50.3776C28.6167 50.5042 28.9403 50.6025 29.1373 50.6025C29.5171 50.6025 29.5171 50.5885 29.3765 50.0825C29.081 49.0282 29.5734 47.8335 30.4176 47.5664C30.9241 47.4118 31.6275 47.6367 32.0074 48.1005C32.345 48.5082 32.3732 48.6347 32.331 49.5764L32.2888 50.6025H32.9641H33.6253V48.4238V46.2451H34.0474H34.4695V47.9459V49.6467L34.9619 49.211C35.6232 48.6347 36.4673 48.213 36.9597 48.213C37.5084 48.213 38.24 48.6909 38.3526 49.1266C38.4089 49.3375 38.4089 49.7451 38.3667 50.0544C38.3104 50.5323 38.3244 50.6025 38.5777 50.6025C39.253 50.6025 39.3937 50.3776 39.3937 49.2672V48.213H39.8158H40.2379V49.0704C40.2379 50.2933 40.6037 50.8134 41.2227 50.4198C41.4478 50.2933 41.5041 50.0965 41.5041 49.5062C41.5041 49.0985 41.6026 48.5785 41.7151 48.3536C41.9543 47.9038 42.5733 47.5102 43.0517 47.5102C43.53 47.5102 44.1491 47.9038 44.3883 48.3536C44.5149 48.5925 44.5993 49.1407 44.5993 49.6889C44.5993 50.5463 44.6134 50.6025 44.9229 50.6025C45.6545 50.5885 45.7248 50.3776 45.7248 48.227V46.2451H46.1469H46.569V48.3395C46.569 50.715 46.4564 51.0242 45.4575 51.3194C44.6837 51.5443 42.5874 51.4319 42.2638 51.1367C42.0246 50.9399 41.9684 50.9258 41.7292 51.1086C41.3775 51.3616 40.5192 51.3616 40.1816 51.1226C39.9565 50.954 39.8439 50.968 39.4218 51.1929C38.9576 51.4178 38.4933 51.4459 33.8364 51.4319C31.0507 51.4319 28.673 51.3897 28.5604 51.3475ZM31.2477 50.462C31.4587 50.3355 31.515 50.1527 31.515 49.5062C31.515 48.6347 31.3602 48.3536 30.8678 48.3536C30.4176 48.3536 30.2206 48.6768 30.2065 49.478C30.1784 50.0544 30.2347 50.2511 30.4457 50.4058C30.7834 50.6447 30.8819 50.6447 31.2477 50.462ZM37.2552 50.3776C37.5929 50.1387 37.6632 49.6327 37.3959 49.3656C36.9738 48.9439 35.595 49.4499 34.8353 50.2933L34.568 50.6025H35.7498C36.5939 50.6025 37.0301 50.5463 37.2552 50.3776ZM43.727 49.5905C43.6848 48.6206 43.6707 48.5644 43.3049 48.4379C42.714 48.227 42.3482 48.6347 42.3482 49.4921C42.3482 50.2511 42.6718 50.6025 43.3753 50.6025H43.7692L43.727 49.5905Z" fill="white"/>
<path d="M127.115 51.3473C126.412 51.1786 125.919 50.3212 125.919 49.2951C125.919 48.5361 125.652 48.2409 125.117 48.4377C124.456 48.6626 124.329 50.265 124.948 50.4196C125.173 50.4899 125.216 50.5742 125.145 50.8694C125.019 51.3754 124.976 51.4035 124.54 51.1505C124.02 50.8694 123.781 50.3071 123.767 49.3654C123.738 48.0863 124.456 47.3694 125.553 47.5662C126.313 47.7067 126.763 48.3393 126.763 49.281C126.763 50.1525 127.087 50.6023 127.692 50.6023C128.452 50.6023 128.592 50.4055 128.592 49.267V48.2128H129.014H129.436V49.3091C129.436 50.5602 129.253 50.9397 128.508 51.2489C128.044 51.4457 127.636 51.4738 127.115 51.3473Z" fill="white"/>
<path d="M148.88 51.2351C148.317 50.9961 148.008 50.3214 148.008 49.3656C148.008 48.6347 147.839 48.3536 147.375 48.3536C146.896 48.3536 146.601 48.7893 146.601 49.5062C146.601 50.0262 146.671 50.209 146.938 50.4198C147.206 50.6166 147.248 50.7291 147.15 50.9961C146.995 51.3897 146.741 51.3897 146.333 51.0102C145.925 50.6307 145.757 50.1668 145.757 49.3937C145.757 48.6066 146.066 48.0021 146.601 47.721C147.107 47.454 147.487 47.454 147.994 47.707C148.599 48.0303 148.852 48.5222 148.852 49.3937C148.852 50.0262 148.908 50.209 149.161 50.3776C149.443 50.5744 149.499 50.5744 149.724 50.3636C149.921 50.1949 149.977 49.9278 149.977 49.1688V48.213H150.399H150.822V49.1829C150.822 50.0403 150.864 50.1949 151.131 50.3776C151.3 50.5042 151.708 50.6025 152.046 50.6025H152.636L152.214 49.6186C151.736 48.4941 151.792 48.2552 152.552 47.7913C153.382 47.2853 154.775 47.5383 155.253 48.2692C155.535 48.705 155.45 49.4359 155.042 50.1527L154.775 50.6025H155.225C155.999 50.6025 156.309 50.2793 156.309 49.464C156.309 48.6066 156.604 48.0021 157.153 47.721C157.673 47.454 158.039 47.454 158.56 47.721C159.151 48.0303 159.404 48.6066 159.404 49.6889V50.6025H161.317H163.231L162.64 49.8997C162.035 49.1829 161.627 48.972 161.036 49.0845C160.754 49.1407 160.684 49.0845 160.642 48.7612C160.571 48.2692 161.008 48.0021 161.683 48.1287C162.232 48.2411 162.471 48.4379 163.456 49.5764C164.3 50.5744 164.609 50.7291 165.102 50.4058C165.454 50.1809 165.454 50.1387 165.454 48.213V46.2451H165.876H166.298V48.213C166.298 51.5162 166.368 51.474 161.092 51.4178C157.772 51.3756 157.279 51.3475 157.068 51.1367C156.843 50.9118 156.815 50.9118 156.477 51.1367C156.168 51.3335 155.718 51.3756 153.621 51.3756C151.778 51.3756 151.047 51.3194 150.779 51.1789C150.456 51.0102 150.357 51.0102 149.935 51.221C149.358 51.4881 149.457 51.4881 148.88 51.2351ZM154.198 49.8997C154.592 49.1266 154.564 48.6628 154.114 48.4941C153.635 48.3114 153.312 48.3114 153.044 48.5363C152.833 48.6909 152.848 48.7893 153.241 49.6467C153.481 50.1668 153.734 50.5604 153.79 50.5182C153.86 50.476 154.043 50.1949 154.198 49.8997ZM158.531 49.5905C158.489 48.6206 158.475 48.5644 158.109 48.4379C157.518 48.227 157.153 48.6347 157.153 49.4921C157.153 50.2511 157.476 50.6025 158.18 50.6025H158.574L158.531 49.5905Z" fill="white"/>
<path d="M167.395 51.2491C167.17 51.0805 167.142 50.7853 167.142 48.6487V46.2451H167.578H168L167.958 48.705C167.93 50.0825 167.859 51.207 167.775 51.2913C167.676 51.3756 167.55 51.3616 167.395 51.2491Z" fill="white"/>
<path d="M21.8776 51.1929C21.7932 51.1367 21.7369 50.1246 21.7369 48.6768V46.2451H22.1308H22.5107V48.5503C22.5107 49.8154 22.4685 50.954 22.4263 51.0805C22.3278 51.3194 22.1027 51.3616 21.8776 51.1929Z" fill="white"/>
<path d="M48.0181 50.968L47.6242 50.6307L47.582 48.4379L47.5398 46.2451H47.9618H48.398V48.2552C48.398 50.1387 48.4121 50.2652 48.6934 50.4339C48.9467 50.5885 49.0311 50.5885 49.2562 50.3776C49.4672 50.1809 49.5235 49.9419 49.5235 49.1688V48.213H49.9597H50.3958L50.3536 49.3234C50.2973 50.3355 50.2551 50.4901 49.8893 50.8696C49.3547 51.4319 48.595 51.46 48.0181 50.968Z" fill="white"/>
<path d="M142.563 51.207C142.422 51.1648 142.38 50.5182 142.38 48.6909V46.2451H142.802H143.224V48.3395C143.224 51.1507 143.154 51.46 142.563 51.207Z" fill="white"/>
<path d="M15.4058 47.3692C15.1525 47.0881 15.1525 47.074 15.448 46.7788C15.7434 46.4837 15.7575 46.4696 16.0529 46.7367C16.3343 47.0037 16.3625 47.0037 16.5313 46.7648C16.7564 46.4415 16.9815 46.4555 17.1644 46.821C17.291 47.0459 17.277 47.1724 17.08 47.3833C16.8408 47.6503 16.8267 47.6503 16.5172 47.3551L16.1936 47.06L16.0107 47.3551C15.7856 47.7206 15.7293 47.7206 15.4058 47.3692Z" fill="white"/>
<path d="M39.5625 47.3274L39.253 46.9901L39.5344 46.737C39.8158 46.484 39.8298 46.484 40.1393 46.7792L40.4348 47.0884L40.1534 47.3696L39.872 47.6507L39.5625 47.3274Z" fill="white"/>
<path d="M136.443 47.1723C136.218 46.849 136.218 46.8209 136.485 46.5819C136.752 46.343 136.766 46.343 137.062 46.6381C137.357 46.9333 137.357 46.9474 137.104 47.2285C136.78 47.5799 136.738 47.5799 136.443 47.1723Z" fill="white"/>
<path d="M0.73158 46.6245L0.422058 46.3012L0.745649 45.9779L1.08331 45.6687L1.29435 45.992C1.50538 46.3153 1.51945 46.3153 1.81491 46.0482C2.09629 45.7812 2.12443 45.7812 2.39174 46.0342L2.67313 46.2872L2.3636 46.6245L2.05408 46.9619L1.81491 46.6526L1.5898 46.3575L1.30842 46.6526L1.02703 46.9478L0.73158 46.6245Z" fill="white"/>
<path d="M6.90794 46.6107L6.61249 46.2874L6.89387 46.0344C7.16119 45.7814 7.18932 45.7814 7.47071 46.0484C7.75209 46.3014 7.78023 46.3014 7.94906 46.0625C8.17417 45.7532 8.343 45.7532 8.62438 46.0765C8.84949 46.3155 8.83542 46.3577 8.5259 46.6528L8.18824 46.9621L7.96313 46.6388L7.72395 46.3155L7.47071 46.6247L7.21746 46.934L6.90794 46.6107Z" fill="white"/>
<path d="M25.7747 46.6249L25.4652 46.3016L25.7888 45.9923L26.1265 45.6831L26.3797 45.9642C26.6189 46.2313 26.647 46.2313 26.9003 46.0064C27.1535 45.7815 27.1816 45.7815 27.4349 46.0486C27.6881 46.3016 27.6881 46.3297 27.449 46.6249C27.1957 46.9341 27.1816 46.9341 26.9425 46.653C26.6892 46.3859 26.6892 46.3859 26.3797 46.667L26.0843 46.9482L25.7747 46.6249Z" fill="white"/>
<path d="M30.0658 46.6528C29.6719 46.0905 30.2487 45.5142 30.6708 46.0343C30.8396 46.2311 30.8818 46.217 31.1632 45.964C31.4587 45.6829 31.4727 45.6829 31.6979 45.9359C32.0074 46.2732 31.9933 46.4279 31.6838 46.723C31.4305 46.9339 31.4024 46.9339 31.1632 46.6668L30.91 46.3857L30.5864 46.6809L30.2769 46.962L30.0658 46.6528Z" fill="white"/>
<path d="M124.4 46.6249L124.09 46.3016L124.414 45.9923L124.751 45.6831L125.005 45.9642C125.244 46.2313 125.272 46.2313 125.525 46.0064C125.778 45.7815 125.807 45.7815 126.102 46.0767L126.397 46.3859L126.116 46.667L125.835 46.9622L125.567 46.667L125.314 46.3859L125.005 46.667L124.709 46.9482L124.4 46.6249Z" fill="white"/>
<path d="M146.488 46.6245L146.179 46.3012L146.502 45.9779L146.84 45.6687L147.051 45.992C147.262 46.3153 147.276 46.3153 147.572 46.0482C147.853 45.7812 147.881 45.7812 148.148 46.0342L148.43 46.2872L148.12 46.6245L147.811 46.9619L147.572 46.6526L147.347 46.3575L147.065 46.6526L146.784 46.9478L146.488 46.6245Z" fill="white"/>
<path d="M15.9685 46.2449C15.7153 45.9638 15.7153 45.9497 15.9826 45.6686C16.264 45.3875 16.264 45.3875 16.5313 45.6826C16.7845 45.9638 16.7845 45.9778 16.5172 46.259L16.2358 46.5401L15.9685 46.2449Z" fill="white"/>
<path d="M104.506 34.41C104.196 34.3257 103.774 34.0446 103.493 33.7353C101.988 32.0626 103.479 29.4622 105.66 29.9542C106.462 30.1369 106.898 30.4462 107.221 31.0787C108.164 32.9341 106.518 34.9723 104.506 34.41Z" fill="white"/>
<path d="M81.4887 20.1005C81.1651 20.0302 80.0115 19.6929 78.9281 19.3274C77.8589 18.976 76.7333 18.6949 76.4238 18.6949C75.5234 18.6949 75.1154 18.0202 75.7063 17.486C75.9736 17.2471 76.2268 17.219 78.3232 17.2471C79.6034 17.2611 80.6164 17.233 80.5742 17.2049C80.532 17.1627 79.9552 17.0503 79.2939 16.9378C78.6327 16.8254 77.8448 16.6708 77.5634 16.6005C77.0851 16.4599 76.7615 16.5443 74.2431 17.3736C71.3448 18.3435 70.7258 18.4278 70.2334 17.9358C70.0645 17.7672 70.1208 17.6688 70.7117 17.233C73.0191 15.5603 76.0439 14.3374 78.7452 13.986C80.321 13.7752 82.769 14.4358 85.1045 15.6868C86.3144 16.3334 89.3393 18.2872 89.3393 18.4137C89.3393 18.484 88.5233 18.8073 86.1878 19.6366C85.0482 20.0443 84.5558 20.1427 83.4443 20.1848C82.6987 20.2129 81.8264 20.1708 81.4887 20.1005Z" fill="white"/>
<path d="M100.468 11.7936C99.0048 11.4844 98.2029 9.81167 98.8923 8.47633C99.7083 6.85987 102.058 6.8177 102.958 8.40605C103.929 10.135 102.41 12.2012 100.468 11.7936Z" fill="white"/>
</svg>
