<svg width="20" height="21" viewBox="0 0 20 21" fill="none" xmlns="http://www.w3.org/2000/svg">
<path d="M14.0517 4.23913L15.4575 2.83246C15.7506 2.5394 16.148 2.37476 16.5625 2.37476C16.977 2.37476 17.3744 2.5394 17.6675 2.83246C17.9606 3.12553 18.1252 3.52301 18.1252 3.93746C18.1252 4.35192 17.9606 4.7494 17.6675 5.04246L8.81833 13.8916C8.37777 14.3319 7.83447 14.6556 7.2375 14.8333L5 15.5L5.66667 13.2625C5.8444 12.6655 6.16803 12.1222 6.60833 11.6816L14.0517 4.23913ZM14.0517 4.23913L16.25 6.43746M15 12.1666V16.125C15 16.6222 14.8025 17.0992 14.4508 17.4508C14.0992 17.8024 13.6223 18 13.125 18H4.375C3.87772 18 3.40081 17.8024 3.04917 17.4508C2.69754 17.0992 2.5 16.6222 2.5 16.125V7.37496C2.5 6.87768 2.69754 6.40077 3.04917 6.04914C3.40081 5.69751 3.87772 5.49996 4.375 5.49996H8.33333" stroke="#138B96" stroke-width="1.2" stroke-linecap="round" stroke-linejoin="round"/>
</svg>
